<svg xmlns="http://www.w3.org/2000/svg" xmlns:xlink="http://www.w3.org/1999/xlink" contentStyleType="text/css" data-diagram-type="DESCRIPTION" height="438px" preserveAspectRatio="none" style="width:529px;height:438px;background:#FFFFFF;" version="1.1" viewBox="0 0 529 438" width="529px" zoomAndPan="magnify"><defs/><g><!--cluster Old Version--><g id="cluster_Old Version"><path d="M8.5,139.3 L101.0469,139.3 A3.75,3.75 0 0 1 103.5469,141.8 L110.5469,161.5969 L246.5,161.5969 A2.5,2.5 0 0 1 249,164.0969 L249,339.39 A2.5,2.5 0 0 1 246.5,341.89 L8.5,341.89 A2.5,2.5 0 0 1 6,339.39 L6,141.8 A2.5,2.5 0 0 1 8.5,139.3 " fill="#FFFFFF" fill-opacity="0.00000" style="stroke:#000000;stroke-width:1.5;"/><line style="stroke:#000000;stroke-width:1.5;" x1="6" x2="110.5469" y1="161.5969" y2="161.5969"/><text fill="#000000" font-family="sans-serif" font-size="14" font-weight="bold" lengthAdjust="spacing" textLength="91.5469" x="10" y="154.2951">Old Version</text></g><!--cluster New Version--><g id="cluster_New Version"><path d="M275.5,139.3 L375.4707,139.3 A3.75,3.75 0 0 1 377.9707,141.8 L384.9707,161.5969 L519.5,161.5969 A2.5,2.5 0 0 1 522,164.0969 L522,339.39 A2.5,2.5 0 0 1 519.5,341.89 L275.5,341.89 A2.5,2.5 0 0 1 273,339.39 L273,141.8 A2.5,2.5 0 0 1 275.5,139.3 " fill="#FFFFFF" fill-opacity="0.00000" style="stroke:#000000;stroke-width:1.5;"/><line style="stroke:#000000;stroke-width:1.5;" x1="273" x2="384.9707" y1="161.5969" y2="161.5969"/><text fill="#000000" font-family="sans-serif" font-size="14" font-weight="bold" lengthAdjust="spacing" textLength="98.9707" x="277" y="154.2951">New Version</text></g><!--entity oldDB--><g id="elem_oldDB"><path d="M106.48,290.6 C106.48,280.6 164.0034,280.6 164.0034,280.6 C164.0034,280.6 221.5269,280.6 221.5269,290.6 L221.5269,315.8969 C221.5269,325.8969 164.0034,325.8969 164.0034,325.8969 C164.0034,325.8969 106.48,325.8969 106.48,315.8969 L106.48,290.6 " fill="#F1F1F1" style="stroke:#181818;stroke-width:0.5;"/><path d="M106.48,290.6 C106.48,300.6 164.0034,300.6 164.0034,300.6 C164.0034,300.6 221.5269,300.6 221.5269,290.6 " fill="#FFFFFF" fill-opacity="0.00000" style="stroke:#181818;stroke-width:0.5;"/><text fill="#000000" font-family="sans-serif" font-size="14" lengthAdjust="spacing" textLength="95.0469" x="116.48" y="317.5951">Old Database</text></g><!--entity oldSrv--><g id="elem_oldSrv"><rect fill="#F1F1F1" height="46.2969" rx="2.5" ry="2.5" style="stroke:#181818;stroke-width:0.5;" width="157.0928" x="75.45" y="174.3"/><rect fill="#F1F1F1" height="10" style="stroke:#181818;stroke-width:0.5;" width="15" x="212.5428" y="179.3"/><rect fill="#F1F1F1" height="2" style="stroke:#181818;stroke-width:0.5;" width="4" x="210.5428" y="181.3"/><rect fill="#F1F1F1" height="2" style="stroke:#181818;stroke-width:0.5;" width="4" x="210.5428" y="185.3"/><text fill="#000000" font-family="sans-serif" font-size="14" lengthAdjust="spacing" textLength="117.0928" x="90.45" y="207.2951">Old Firely Server</text></g><!--entity oldSrvHTTP--><g id="elem_oldSrvHTTP"><ellipse cx="31" cy="197.45" fill="#F1F1F1" rx="8" ry="8" style="stroke:#181818;stroke-width:0.5;"/><text fill="#000000" font-family="sans-serif" font-size="14" lengthAdjust="spacing" textLength="36.0732" x="12.9634" y="227.4451">HTTP</text></g><!--entity newDB--><g id="elem_newDB"><path d="M326.11,290.6 C326.11,280.6 387.0036,280.6 387.0036,280.6 C387.0036,280.6 447.8971,280.6 447.8971,290.6 L447.8971,315.8969 C447.8971,325.8969 387.0036,325.8969 387.0036,325.8969 C387.0036,325.8969 326.11,325.8969 326.11,315.8969 L326.11,290.6 " fill="#F1F1F1" style="stroke:#181818;stroke-width:0.5;"/><path d="M326.11,290.6 C326.11,300.6 387.0036,300.6 387.0036,300.6 C387.0036,300.6 447.8971,300.6 447.8971,290.6 " fill="#FFFFFF" fill-opacity="0.00000" style="stroke:#181818;stroke-width:0.5;"/><text fill="#000000" font-family="sans-serif" font-size="14" lengthAdjust="spacing" textLength="101.7871" x="336.11" y="317.5951">New Database</text></g><!--entity newSrv--><g id="elem_newSrv"><rect fill="#F1F1F1" height="46.2969" rx="2.5" ry="2.5" style="stroke:#181818;stroke-width:0.5;" width="163.833" x="342.08" y="174.3"/><rect fill="#F1F1F1" height="10" style="stroke:#181818;stroke-width:0.5;" width="15" x="485.913" y="179.3"/><rect fill="#F1F1F1" height="2" style="stroke:#181818;stroke-width:0.5;" width="4" x="483.913" y="181.3"/><rect fill="#F1F1F1" height="2" style="stroke:#181818;stroke-width:0.5;" width="4" x="483.913" y="185.3"/><text fill="#000000" font-family="sans-serif" font-size="14" lengthAdjust="spacing" textLength="123.833" x="357.08" y="207.2951">New Firely Server</text></g><!--entity newSrvHTTP--><g id="elem_newSrvHTTP"><ellipse cx="298" cy="197.45" fill="#F1F1F1" rx="8" ry="8" style="stroke:#181818;stroke-width:0.5;"/><text fill="#000000" font-family="sans-serif" font-size="14" lengthAdjust="spacing" textLength="36.0732" x="279.9634" y="227.4451">HTTP</text></g><!--entity revProxy--><g id="elem_revProxy"><rect fill="#F1F1F1" height="46.2969" rx="2.5" ry="2.5" style="stroke:#181818;stroke-width:0.5;" width="140.6865" x="93.66" y="7"/><rect fill="#F1F1F1" height="10" style="stroke:#181818;stroke-width:0.5;" width="15" x="214.3465" y="12"/><rect fill="#F1F1F1" height="2" style="stroke:#181818;stroke-width:0.5;" width="4" x="212.3465" y="14"/><rect fill="#F1F1F1" height="2" style="stroke:#181818;stroke-width:0.5;" width="4" x="212.3465" y="18"/><text fill="#000000" font-family="sans-serif" font-size="14" lengthAdjust="spacing" textLength="100.6865" x="108.66" y="39.9951">Reverse Proxy</text></g><!--entity revProxyHTTP--><g id="elem_revProxyHTTP"><ellipse cx="278" cy="30.15" fill="#F1F1F1" rx="8" ry="8" style="stroke:#181818;stroke-width:0.5;"/><text fill="#000000" font-family="sans-serif" font-size="14" lengthAdjust="spacing" textLength="36.0732" x="259.9634" y="60.1451">HTTP</text></g><!--entity migTool--><g id="elem_migTool"><rect fill="#F1F1F1" height="46.2969" rx="2.5" ry="2.5" style="stroke:#181818;stroke-width:0.5;" width="140.0303" x="209.98" y="385.89"/><rect fill="#F1F1F1" height="10" style="stroke:#181818;stroke-width:0.5;" width="15" x="330.0103" y="390.89"/><rect fill="#F1F1F1" height="2" style="stroke:#181818;stroke-width:0.5;" width="4" x="328.0103" y="392.89"/><rect fill="#F1F1F1" height="2" style="stroke:#181818;stroke-width:0.5;" width="4" x="328.0103" y="396.89"/><text fill="#000000" font-family="sans-serif" font-size="14" lengthAdjust="spacing" textLength="100.0303" x="224.98" y="418.8851">Migration Tool</text></g><!--link oldSrv to oldDB--><g id="link_oldSrv_oldDB"><path d="M156.17,220.97 C157.86,238.5 159.614,256.7277 161.294,274.1477 " fill="#FFFFFF" fill-opacity="0.00000" id="oldSrv-to-oldDB" style="stroke:#181818;stroke-width:1;"/><polygon fill="#181818" points="161.87,280.12,164.9876,270.7776,161.39,275.1431,157.0245,271.5455,161.87,280.12" style="stroke:#181818;stroke-width:1;"/></g><!--link newSrv to newDB--><g id="link_newSrv_newDB"><path d="M415.97,220.97 C409.72,238.5 403.1147,257.0484 396.9047,274.4684 " fill="#FFFFFF" fill-opacity="0.00000" id="newSrv-to-newDB" style="stroke:#181818;stroke-width:1;"/><polygon fill="#181818" points="394.89,280.12,401.6798,272.9857,396.5689,275.4103,394.1443,270.2994,394.89,280.12" style="stroke:#181818;stroke-width:1;"/></g><!--link oldSrvHTTP to oldSrv--><g id="link_oldSrvHTTP_oldSrv"><path d="M40.13,197.45 C51.84,197.45 63.56,197.45 75.27,197.45 " fill="#FFFFFF" fill-opacity="0.00000" id="oldSrvHTTP-oldSrv" style="stroke:#181818;stroke-width:1;"/></g><!--reverse link oldDB to migTool--><g id="link_oldDB_migTool"><path d="M193.0717,330.2605 C212.6217,347.7505 235.39,368.12 255.03,385.7 " fill="#FFFFFF" fill-opacity="0.00000" id="oldDB-backto-migTool" style="stroke:#181818;stroke-width:1;"/><polygon fill="#181818" points="188.6,326.26,192.6405,335.2419,192.3264,329.5938,197.9745,329.2796,188.6,326.26" style="stroke:#181818;stroke-width:1;"/></g><!--reverse link newDB to migTool--><g id="link_newDB_migTool"><path d="M360.0022,330.4365 C341.9622,347.9265 321.15,368.12 303.03,385.7 " fill="#FFFFFF" fill-opacity="0.00000" id="newDB-backto-migTool" style="stroke:#181818;stroke-width:1;"/><polygon fill="#181818" points="364.31,326.26,355.064,329.6528,360.7202,329.7404,360.6326,335.3966,364.31,326.26" style="stroke:#181818;stroke-width:1;"/></g><!--link newSrvHTTP to newSrv--><g id="link_newSrvHTTP_newSrv"><path d="M307.35,197.45 C318.89,197.45 330.44,197.45 341.98,197.45 " fill="#FFFFFF" fill-opacity="0.00000" id="newSrvHTTP-newSrv" style="stroke:#181818;stroke-width:1;"/></g><!--link revProxy to oldSrvHTTP--><g id="link_revProxy_oldSrvHTTP"><path d="M134.2,53.49 C110.93,72.18 79.12,100.65 58,131.3 C45.22,149.85 38.5101,169.6214 34.8201,182.5214 " fill="#FFFFFF" fill-opacity="0.00000" id="revProxy-to-oldSrvHTTP" style="stroke:#181818;stroke-width:1;"/><polygon fill="#181818" points="33.17,188.29,39.4909,180.7371,34.5451,183.4828,31.7994,178.537,33.17,188.29" style="stroke:#181818;stroke-width:1;"/></g><!--link revProxy to newSrvHTTP--><g id="link_revProxy_newSrvHTTP"><path d="M183.63,53.51 C201.11,73.6 227.21,104.04 249,131.3 C265.08,151.42 279.5296,171.0086 288.5896,183.4586 " fill="#FFFFFF" fill-opacity="0.00000" id="revProxy-to-newSrvHTTP" style="stroke:#181818;stroke-width:1;"/><polygon fill="#181818" points="292.12,188.31,290.0586,178.6793,289.178,184.2672,283.5901,183.3865,292.12,188.31" style="stroke:#181818;stroke-width:1;"/></g><!--link revProxy to revProxyHTTP--><g id="link_revProxy_revProxyHTTP"><path d="M234.8,30.15 C246.05,30.15 257.3,30.15 268.55,30.15 " fill="#FFFFFF" fill-opacity="0.00000" id="revProxy-revProxyHTTP" style="stroke:#181818;stroke-width:1;"/></g><!--SRC=[TP5DRi8m48NtSufHzhb25mWXDcqZYDYRP1fP13joGW0XxixuhubfixFdlNd-F5FfSwSLgG6p7OraUiB2wDizGz6ZeT5TGAg1p8-e2BDjMHQ9Q0i0dQXEec7zkwtnm3bIgmmVW5YBGHn57wHrkBa8tTRh5Lkg2S9wDj9GUySz6GQAnhqPsVaVY1STndC6yaNN9H0h9I2AhkyWrlCNX8tB85wC8BEiJzaOCJ08bbgtpdkMZJq3WCV7FFy8y_0nhk2vfWzY7aS18G3pI_VRcTPyymJ5pG4V82wFN_7T4JmLPZ-QX6JpBm00]--></g></svg>